<?xml version="1.0" standalone="no"?>
<!DOCTYPE svg PUBLIC "-//W3C//DTD SVG 20010904//EN"
 "http://www.w3.org/TR/2001/REC-SVG-20010904/DTD/svg10.dtd">
<svg version="1.0" xmlns="http://www.w3.org/2000/svg"
 width="16.000000pt" height="16.000000pt" viewBox="0 0 16.000000 16.000000"
 preserveAspectRatio="xMidYMid meet">
<metadata>
Created by potrace 1.11, written by Peter Selinger 2001-2013
</metadata>
<g transform="translate(0.000000,16.000000) scale(0.002286,-0.002286)"
fill="#000000" stroke="none">
<path d="M1343 4708 c-5 -7 -56 -94 -113 -193 -57 -99 -124 -216 -150 -260
-26 -44 -84 -145 -130 -225 -46 -80 -120 -208 -165 -285 -45 -77 -84 -147 -88
-155 -4 -8 -15 -28 -26 -45 -26 -42 -501 -866 -501 -869 0 -1 531 -2 1180 -2
649 0 1180 2 1180 6 0 3 -4 10 -9 16 -4 5 -22 34 -38 64 -17 30 -63 111 -103
180 -40 68 -81 138 -90 155 -10 16 -33 57 -52 90 -20 33 -47 80 -60 105 -14
25 -58 101 -98 170 -40 68 -81 138 -90 155 -79 140 -447 778 -465 805 -21 35
-95 163 -143 250 -14 25 -26 46 -27 48 -1 1 -7 -3 -12 -10z"/>
<path d="M5628 4684 c-13 -20 -36 -61 -53 -91 -16 -29 -142 -247 -280 -485
-137 -237 -252 -437 -254 -442 -2 -6 -17 -30 -32 -53 -16 -23 -29 -43 -29 -46
0 -3 -86 -153 -265 -462 -162 -281 -245 -425 -245 -428 0 -2 531 -3 1180 -3
649 0 1180 2 1180 4 0 2 -15 30 -34 61 -19 31 -43 72 -54 91 -10 19 -101 177
-202 350 -100 173 -192 333 -204 355 -12 22 -56 99 -98 170 -42 72 -84 145
-94 162 -11 18 -79 137 -153 265 -74 128 -181 313 -237 412 l-103 179 -23 -39z"/>
<path d="M2328 4181 c3 -9 15 -32 27 -51 12 -19 33 -55 47 -80 14 -25 49 -85
78 -135 29 -49 64 -110 78 -135 64 -113 210 -366 272 -470 5 -8 42 -73 83
-145 102 -178 310 -537 456 -789 66 -115 121 -213 121 -218 0 -22 23 11 111
164 52 90 99 172 106 183 7 11 15 27 19 35 4 8 26 47 49 85 37 61 109 187 297
515 27 47 53 92 58 100 27 43 130 222 130 226 0 2 11 21 23 42 28 43 328 563
369 638 l28 52 -1179 0 c-1089 0 -1179 -1 -1173 -17z"/>
</g>
</svg>
